<?xml version="1.0" encoding="UTF-8"?>
<svg version="1.1" viewBox="0 0 1920 1920" width="1920" height="1920" xmlns="http://www.w3.org/2000/svg">
<path transform="translate(520,809)" d="m0 0 9 1 20 7 16 8 23 12 19 12 8 5 15 10 10 8 10 9 8 7 11 10 9 7v2l4 2 16 15 13 12v2h2l7 8 11 12v2h2l9 11 10 15 2 6v7l-2 4-6 3-5 10h-7l-5-6-4-7-6-10-5-6-5-5-12-13-6-8-21-21-13-10-9-7-11-6 9 11 12 14 10 14 8 11 12 17 15 23 11 17 8 12 9 13 7 11 10 19 11 23 17 35 12 29 15 41 4 21 10 33 2 9v4l64-16 31-8v-3l-11-20-8-13-10-12-10-14-7-11-10-15-11-15-12-14-8-10-8-11-6-7 1-5 2-2h9l10 1 9 1 3 3-3 11 4 2v4l4 2 4 7 8 9 13 17 9 11 13 16 10 13 14 21 10 17 7 10 6-1-1-8-6-25-7-24-11-23-6-16-7-16-9-20-8-18-3-3-5-12-7 4h-3l-1-6 2-9 7-14 2-6 7 1 5 3 8 13 11 23 7 16 1 5 4 2 12 37 7 21 6 17 5 18 4 10 3 8 3 14v3l15-4 29-15 13-8 30-18 21-14 14-10 9-4h8l1 3 3 1-1 8-6 10-4 7-8 10-12 12-4 5-11 9 5-2 17-8 22-12 19-12 16-10 8-6h2v-2l20-13 24-15 19-13 17-12 22-14 14-11 17-12 14-10 14-12 20-16 3-1h7l6 3 2 2v7l-3 7-3 5-3 10-8 13-9 12-6 7-3 5-15 13-5 4-1 2h-2l-1 3-28 22-10 9-14 11-6 4-11 9-16 12-15 11 16-8 25-13 21-12 24-14 31-17 13-8 23-14 22-14 16-11 6-4 5-5 4-2 19-13 18-13 13-10 14-11 18-14 11-10 26-20 17-13 14-12 12-10 9-7 14-12 16-13 8-7 6-2h8l8 5 2 3 2 12-3 15-4 10-8 10-9 10-11 14-10 11h-2v2l-16 16-11 9-11 10-18 13-16 8-16 6-17 4-13 5-7 1v-3l16-11 11-7 12-12 9-7 10-8 9-9 10-13 2-3 1-6-4 2-11 8-10 9-13 10-13 9-13 10-16 11-20 14-12 8-16 11-18 13-15 10-10 7-27 16-28 17-15 9-27 16-46 26-27 15-24 13-21 10-19 10-28 15-42 21-28 13-24 11-25 11-1 4-1 29-2 26-3 9-4 6-2-2-5-29-6-25-1-7-35 15-35 14-1-2 32-16 23-13 11-6-3-9-5-10-3-10-3-7-9 3-13 5-3-1 20-13h2l-12-25-8-13-9 1-58 13-34 8 2 19v44l-2 19-2 10h-3l-5-21-9-24-7-21-3-8-3-11-21 6-64 16-160 39-58 14-10 2h-4l-1 2-3 1-7 1-58 15-89 22-18 11-6 4-4-1 5-8-14 2 1-2 17-6 8-14 15-25 12-16 4-4 4 2 2 5-1 5 12-8 14-10 36-24 36-26 20-14 19-14 10-8 20-15 13-10 12-9 19-14 13-10 3-1 2-4 5-1 1-5-6-18-8-17-10-19-6-10-10-14-1-5 2-3 9 1 5 3 7 2 12 7 15 12 13 9 14 12 10 9 17 17 11 12-2-13-4-13-10-19-4-8-14-20-10-17-8-16-7-10-13-20-6-10-4-7-11-14-10-16-10-13-7-7-8-11-11-12 1-3h9l15 5 12 6 19 13 9 7 13 8 14 10 14 11 13 11 3 2v2l4 2 10 8 5 5 14 15 7 8 5 5 8 9 13 17 10 11 9 11 6 9 9 11 12 16 10 13 1 3h2l-4-11-9-27-8-19-4-8-2-9-14-29-11-22-12-18-10-13-7-11-13-19-14-18-10-13-11-14-1-3h-2l-7-8-11-14-9-12-9-11-6-8v-2h-2l-9-11-8-9-11-14-10-11-6-7v-2h-2l-8-11-8-8 1-5zm718 335-9 7-14 9-15 9-24 14-15 9-15 10-17 9-24 14-22 12-18 10-28 15-23 12-33 16-1 2 4 25 2 11 6-2 22-12 52-30 28-16 23-14 24-16 15-11 17-12 15-12 11-8 10-9 11-8v-2l4-2 9-8 3-5 6-9 1-6zm-607-63 2 5 5 6 12 24 9 21 8 14 11 28 9 23 9 27 6 27 1 6v10l-2 16-1 7-3-1-11-20-7-14-15-24-7-8-5-5-11-14-8-8-7-8-34-34h-2v-2l-9-7-3-1 2 6 9 17 7 21 2 5v10l-3 7-15 11-17 10-32 19-12 8-20 16-13 10-7 4-11 7-16 12-15 10-17 11-9 7-11 7-15 10v2l-4 1-11 8v2h-3v2l-4 2-3 2v2h-2v2l-4 1-5 5 1 1-2 1v2l-4 1 1 2-4-1v2l8-1 1-4 2 3 9-3v-2l9-1 40-13 42-13 4-1-3 3-6 3 4 1 103-25 50-12 80-20 73-18 27-7 1-2-11-25-10-24-7-14-12-20-14-20-6-9-11-14-8-11-14-16-5-7-5-5-2-3h-2l-2-4-4-4-6-4-6-5-6-4-5-5-14-7zm430 118-17 11-19 11-26 14-16 8-13 5 3 11 5 18 11-7 9-6 5-6 13-10 13-12 7-6 6-7 2-1v-2h2l6-7 5-4 6-8v-2z" fill="#0D0D0D"/>
<path transform="translate(1325,682)" d="m0 0h5l2 2-1 6-7 9-14 11-16 12-11 8-16 12-11 8-17 12-12 9-21 16-32 24-18 12-11 9-15 12-28 19-11 7-14 11-11 9-10 8-8 8-6 3-3-1-6-10-11-14v-2h-2l-11-14-17-17-12-9 1 4 8 10 9 14 8 14 5 12 5 11 8 18 6 17 7 23 5 21 4 36v10l-2 10-1 2-4-1-3-12-4-11-4-14-6-15-6-16-6-12-11-20-24-40-11-13-10-13-11-12v-2h-2v-2h-2l-3-3-8-7-5-4-5-5v-2l-4-2-5-4-13-9-10-7-4-2 9 9 7 9v2h2l4 5v2h2l9 12 10 14 12 20 14 26 16 32 15 33 14 31 9 25 8 28 9 39 6 23 2 13v38l-1 15-1 3h-2l-6-17-3-9-8-20-10-23-3-6-10-19-12-23-14-27-18-30-15-24-12-17-10-11-7-8-11-14-9-13-5-6v-2h-2l-7-9-4-5-5-5-13-14-7-8-7-7-7-8-19-19-2-1v-2l-4-2-9-8-7-4-14-14-9-6-12-9-7-4-7-6v-2l-4-2-3-1 11 14 6 7 18 27 9 12 6 7 7 10 13 21 10 16 8 15 9 19 4 12 2 2-1 5-6 1h-9l-7 1-6-2-8-19-8-18-13-23-8-12-21-30-7-9-9-11-10-13-7-10-6-11-9-12-12-13v-2h-2l-7-8-3-2v-2h-2l-6-10-12-13-4-4v-2h-2l-9-11-7-8v-2l6 1 25 11 16 8 21 12 18 12 12 9 8 5v2l5 2 2 2 7 3 15 12 14 11 11 10 9 7 23 23 11 12v2h2v2h2l8 10 11 13 4 5v2h2l7 9 14 15 5 6v2h2l11 14 1 3h2l11 14 8 10 11 13 10 13 12 17 15 26 13 24 12 22 1 1-3-15-7-25-5-12-5-14-6-13-5-12-8-16-6-15-15-30-13-24-10-15-11-16-13-18-9-12-9-10-9-11-8-10v-2h-2l-9-11-8-10-23-23v-2l-4-2-1-2 6 1 16 6 17 9 25 11 13 7 20 12 15 11 10 9 5 3 13 14 6 9 6 7 12 17 9 11 18 24 7 11-3-9-7-14-7-11-8-14-8-11-12-18-9-13-7-9-4-5-5-5-3-5-11-11-2-5 2-2 9 2 8 4 14 5 9 4 16 8 14 10 13 12 11 9 7 7 8 7 4 5v2l3 1 4 6 9-3 14-7 22-13 18-11 9-7 12-7 11-8 15-10 5-5 9-6 15-9 21-16 25-14 10-8 8-6 8-7 6-4 8-7 1-4-2-5-2-1 1-5 3-5 11-4 11-3 11-2 21-6z" fill="#151515"/>
<path transform="translate(1613,930)" d="m0 0h8l8 5 2 3 2 12-3 15-4 10-8 10-9 10-11 14-10 11h-2v2l-16 16-11 9-11 10-18 13-16 8-16 6-17 4-13 5-7 1v-3l16-11 11-7 12-12 9-7 10-8 9-9 10-13 2-3 1-6-4 2-11 8-10 9-13 10-13 9-13 10-16 11-20 14-12 8-16 11-18 13-15 10-10 7-27 16-28 17-15 9-27 16-46 26-27 15-24 13-21 10-19 10-28 15-42 21-28 13-24 11-25 11-1 4-1 29h-1l-1-29 1-8-2-6-7-50v-6l2 2 16-11 3-1 2-4 12-10 11-9 11-11h2l2-4h2l2-4h2v-2h2l2-4 4-4h2l1-3h2l2-4 4-6-19 12-19 11-26 14-16 8-10 4h-3l3 9v2h-2l-3-9-2-10-1-1v-5l1 3 15-4 29-15 13-8 30-18 21-14 14-10 9-4h8l1 3 3 1-1 8-6 10-4 7-8 10-12 12-4 5-11 9 5-2 17-8 22-12 19-12 16-10 8-6h2v-2l20-13 24-15 19-13 17-12 22-14 14-11 17-12 14-10 14-12 20-16 3-1h7l6 3 2 2v7l-3 7-3 5-3 10-8 13-9 12-6 7-3 5-15 13-5 4-1 2h-2l-1 3-28 22-10 9-14 11-6 4-11 9-16 12-15 11 16-8 25-13 21-12 24-14 31-17 13-8 23-14 22-14 16-11 6-4 5-5 4-2 19-13 18-13 13-10 14-11 18-14 11-10 26-20 17-13 14-12 12-10 9-7 14-12 16-13 8-7zm-375 214-9 7-14 9-15 9-24 14-15 9-15 10-17 9-24 14-22 12-18 10-28 15-23 12-33 16-1 2 4 25 2 11 6-2 22-12 52-30 28-16 23-14 24-16 15-11 17-12 15-12 11-8 10-9 11-8v-2l4-2 9-8 3-5 6-9 1-6z" fill="#494949"/>
<path transform="translate(1896,853)" d="m0 0 4 1 6 10 1 9-3 12-6 11-4 8 1 2-9 14-14 18-7 8h-2l-1 3h-2v2l-8 7-12 11-11 9-16 13-11 9-11 10-10 8-13 11-9 7-14 11-17 14-13 10-18 13-18 12-22 14-19 12-21 13-9 6 6-2 22-11 19-10 24-13 21-12 8-5v-2l8-2 22-13 20-12 11-7 11-6 21-12 24-15 19-12 22-15 36-26 16-12h2v18l-12 9-20 13-10 7-3 5-4 1-5 2-8 5-11 6-26 16-26 15-13 8-14 8-22 13-26 15-29 16-33 17-16 8-23 12-40 20-19 10-26 13-41 18-44 19-14 6-2-1 10-6 28-15 21-12 26-15 15-9 11-7 24-15 23-14 38-24 45-30 16-11 16-12 10-9 11-9h2v-2l14-10 12-9 13-11 4-2v-2l11-9 3-3h2v-2l8-7 13-12 15-15 2-3h2l2-5 4-6 4-5 5-5 2-5 3-6-1-2 5-5h-3l-15 13-15 10-28 20-8 7-23 16-14 9-21 14-20 12-11 7-18 10-10 6-9 4-26 1v-3l21-12 17-10 18-11 17-11 16-11 17-12 12-9 11-8 10-8h2v-2l8-6h2v-2l8-6 10-7 16-10 13-11 10-9 10-10 12-8 4-4h2l1-3h2v-3l3-3 3-2 4-1 14-12z" fill="#484848"/>
<path transform="translate(883,1046)" d="m0 0 7 1 5 3 8 13 11 23 7 16 1 5 4 2 12 37 7 21 6 17 5 18 4 10 3 8 3 19 2 4 3 16h3l3 11 5 39 3 21 2 6-1 11v40l-2 17-5 9-2 1-2-8-5-28-6-24v-3l-35 15-35 14-1-2 32-16 23-13 11-6-3-9-5-10-3-10-3-7-9 3-13 5-3-1 20-13h2l-12-25-8-13-9 1-58 13-34 8 2 19v44l-2 19-2 10h-3l-5-21-5-13v-3h2l4 11 3 8 2 9h1l2-15v-50l-2-26-2-6-2-9v-8l2 3 3 13v4l64-16 31-8v-3l-11-20-8-13-10-12-10-14-7-11-10-15-11-15-12-14-8-10-8-11-6-7 1-5 2-2h9l10 1 9 1 3 3-3 11 4 2v4l4 2 4 7 8 9 13 17 9 11 13 16 10 13 14 21 10 17 7 10 6-1-1-8-6-25-7-24-11-23-6-16-7-16-9-20-8-18-3-3-5-12-7 4h-3l-1-6 2-9 7-14z" fill="#111"/>
<path transform="translate(807,969)" d="m0 0h21l15 5 11 7 6 5 8 11 5 11 3 14v12l-4 16-5 10-8 10-7 6-10 6-13 4h-22l-13-4-14-8-8-8-6-8-5-12-2-8v-20l3-11 7-14 8-9 8-6 8-5z" fill="#060606"/>
<path transform="translate(1554,1117)" d="m0 0 3 1-1 4-11 7-26 16-29 17-9 6-23 13-21 11h-2l-1 2-22 11-2 2-4 2-1 2-5 1-8 5-1 2-3 1v2l-5-1-10 6-31 16-16 9-27 14-22 12-16 8-18 10-23 11-16 8-35 17-28 13-12 6-32 14-28 12-50 21-27 10-4-1 51-25 30-15 22-12 16-9 15-9 17-9 28-17 20-12 24-16 14-8 22-14 18-12 13-11 20-14 23-16 12-9 10-8 13-11 14-10 8-7 8-4h13l13 1 2 2-1 3-4 1-3 1-7 2v3l-6-1-5 4-12 9-12 10-16 12-17 14-13 10-16 12-39 26-15 11-5 4 42-21 17-9 16-8 25-13 20-11 11-7 20-11 3-3 6-2 19-11 20-12 4-3 12-6 13-8 9-6 15-9-13 2 3-3 26-10 37-13z" fill="#4F4F4F"/>
<path transform="translate(1619,1056)" d="m0 0h12l8 2 2 2-1 6-7 8-17 11-27 14-28 12-29 11-40 13-30 8-26 5-9 1h-19l-7-3v-6l7-8 13-9 14-8h2l1-2 20-9 31-13 28-10 31-10 30-8 25-5z" fill="#3E3E3E"/>
<path transform="translate(782,1275)" d="m0 0h2l3 6 2 10h2v5l-2-4-21 6-64 16-160 39-58 14-10 2h-4l-1 2-3 1-7 1-58 15-73 18-18 4v-2l7-4 5-5 6-4 5-2 16-12 13-10 3-1v2l-6 4-1 2h-2v2l-4 2-2 3 1 2-5 1v2l-3 1v2l4-1 1-3 2 1h3l8-4 7-1 40-13 42-13h4l-1 3-6 3 18-4 87-21 50-12 80-20 73-18 27-7-2-5z" fill="#575757"/>
<path transform="translate(1918,991)" d="m0 0h2v12l-17 12 12-6 5-2v10l-24 13-9 5-5 2-2 4h-2l-1 4 1 2h-12l-3 3h-2l-6 3h-2l-1 2-5 2-15 8-28 13-36 17-27 12-23 9-4-1 17-9 11-6 23-12 23-13 25-14 13-8 16-10 12-8h2v-2h3v-2l10-6 5-5-1-3 5-1h6l15-10 8-6z" fill="#515151"/>
<path transform="translate(913,1243)" d="m0 0h2l3 6 3 11 3 1 1 5-3-3-9 1-58 13-34 8 2 19v44l-2 19-2 10h-3l-5-21-5-13v-3h2l4 11 3 8 2 9h1l2-15v-50l-2-26-2-6-2-9v-8l2 3 3 13v4l64-16 31-8v-3z" fill="#575757"/>
<path transform="translate(958,1336)" d="m0 0h2l2 4 2 11-35 15-35 14-1-2 32-16 23-13 11-6z" fill="#676767"/>
<path transform="translate(334,1351)" d="m0 0 4 2 2 5-1 3-3-5v-3l-3 1-10 14-7 11-6 11-7 10-4 4 2-5 10-16 7-12 12-16zm-36 53 1 4-8 12 3-1 14-9 4 1-19 12-3 2-4-1 5-8-14 2 1-2 17-6z" fill="#767676"/>
<path transform="translate(820,1302)" d="m0 0h2l1 2v44l-2 19-2 10h-3l-5-21-5-13v-3h2l4 11 3 8 2 9h1l2-15z" fill="#919191"/>
<path transform="translate(938,1290)" d="m0 0 1 2h2l3 6 2 6 5 9v6h2l1 9-3-4-3-10-3-7-9 3-13 5-3-1 20-13h2l-4-8z" fill="#727272"/>
<path transform="translate(365,1370)" d="m0 0h2v2l-6 4-1 2h-2v2l-4 2-2 3 1 2-5 1v2l-3 1v2l-4 1h5l-3 2-12 4-4-1 19-14 18-14z" fill="#fff"/>
<path transform="translate(1027,1126)" d="m0 0h1l2 13v38l-1 15-1 3h-2l-5-13v-3h2l4 10z" fill="#9F9F9F"/>
<path transform="translate(946,1234)" d="m0 0h2l3 18 2 5v7l-3-1-1-4-3-2-5-10-1-3 6-2z" fill="#6B6B6B"/>
<path transform="translate(633,912)" d="m0 0 3 1v2l5 1-1 2h-2l8 10 12 14 9 12-1 2-5-5v-3l-4-2v-3l-4-2-1-3-6-5-2-4-8-7-3-4-1-5z" fill="#B0B0B0"/>
<path transform="translate(613,1153)" d="m0 0 7 6 17 17 9 10-3 1-9-10-7-6-1-4-4-2-5-5v-2l-4-2z" fill="#7D7D7D"/>
<path transform="translate(971,1378)" d="m0 0h2l5 27 1 2 3-1-2 6-3 2-2-8-4-23z" fill="#919191"/>
<path transform="translate(807,969)" d="m0 0h21l10 3v1l-11-1h-20l-13 3-2-1 7-3z" fill="#A2A2A2"/>
<path transform="translate(1286,725)" d="m0 0 2 1-15 12-12 8-6 5-2-1 2-3h3l2-4 4-3h4l2-4 9-7h3l1-3z" fill="#A0A0A0"/>
<path transform="translate(702,1256)" d="m0 0h1l1 6v10l-2 16-1 7h-4l-2-5 3 1 2-10 1-11 1-1z" fill="#BCBCBC"/>
<path transform="translate(751,1088)" d="m0 0 3 4 14 28v3h-2l-14-28z" fill="#8E8E8E"/>
<path transform="translate(1226,769)" d="m0 0 2 1-18 14-12 9h-3l7-7h3l1-3h3l2-4 12-9z" fill="#989898"/>
<path transform="translate(896,957)" d="m0 0 4 2v2h2v2h2v2h2l3 5 6 5 5 7v3l4 2-1 4-9-12-9-10-7-8z" fill="#9F9F9F"/>
<path transform="translate(799,1199)" d="m0 0 2 2 3 11 3 16 1 7-1-3h-2l-6-27z" fill="#A4A4A4"/>
<path transform="translate(602,1169)" d="m0 0h3v2h2v2l4 2 13 13v2h2v2l3 1-1 3-26-26z" fill="#828282"/>
<path transform="translate(1856,911)" d="m0 0h2l-1 6-6 7-3 8-5 8-2 1 2-6 5-9-1-2 5-5-2-3z" fill="#fff"/>
<path transform="translate(308,1410)" d="m0 0 4 1-19 12-3 2-4-1 5-8 2 1-2 4z" fill="#868686"/>
<path transform="translate(402,1344)" d="m0 0 2 1-10 7-7 5h-2v2l-7 4-6 5h-2v2l-3-1 11-9 10-7z" fill="#fff"/>
<path transform="translate(1068,884)" d="m0 0 4 1-16 13-8 8-5 1 4-2 2-4h2l2-4 4-4h3l2-4z" fill="#ABABAB"/>
<path transform="translate(731,1147)" d="m0 0 5 5 10 13 8 10-1 2-4-3v-3l-4-2-5-7v-3l-3-1-6-9z" fill="#9B9B9B"/>
<path transform="translate(799,1083)" d="m0 0h37l-3 2-4 1h-22l-8-2z" fill="#A1A1A1"/>
<path transform="translate(917,960)" d="m0 0 5 5 8 9 10 13v3l-4-3v-3l-3-1v-3l-4-2-4-5-2-4-4-3z" fill="#AEAEAE"/>
<path transform="translate(551,1013)" d="m0 0 3 1 4 6v3l4 2v3l4 2 2 3v3l3 1 1 6-2-1-4-7-11-14z" fill="#9E9E9E"/>
<path transform="translate(861,894)" d="m0 0 7 6 11 12 5 6-1 2-5-4-2-4-4-3v-2h-2v-2h-2v-3l-4-2-3-4z" fill="#9E9E9E"/>
<path transform="translate(1152,822)" d="m0 0 4 1-11 9-15 12-2-1 2-3h3l1-3h3l2-4 4-2 3-4 4-2z" fill="#9D9D9D"/>
<path transform="translate(695,1226)" d="m0 0 2 3 5 22v5h-2l-5-22z" fill="#9D9D9D"/>
<path transform="translate(868,828)" d="m0 0 8 6 2 4 5 5v3l4 2 3 6-1 2-12-16-9-10z" fill="#B1B1B1"/>
<path transform="translate(957,879)" d="m0 0 3 1 1 3 4 3v3l4 2v3l4 2 2 4 3 2-1 4-11-14-9-11z" fill="#aaa"/>
<path transform="translate(633,912)" d="m0 0 3 1v2l5 1-1 2h-2l5 7-1 3-9-10-1-5z" fill="#808080"/>
<path transform="translate(875,1022)" d="m0 0h1v12l-4 16-3 6-1-2 4-14 1-7 1-1z" fill="#A6A6A6"/>
<path transform="translate(790,816)" d="m0 0 4 2 19 19-3 1v-2h-2v-2h-2v-2l-3-1v-2h-2v-2l-4-2-7-8z" fill="#969696"/>
<path transform="translate(731,960)" d="m0 0h2l9 11 7 10v2l-3-1-5-7v-3l-4-2-5-6z" fill="#979797"/>
<path transform="translate(511,1240)" d="m0 0 2 1-4 5-12 9-4-1z" fill="#A0A0A0"/>
<path transform="translate(890,856)" d="m0 0 5 3 11 16 1 5-4-4-12-17z" fill="#929292"/>
<path transform="translate(520,809)" d="m0 0 9 1 3 2h-12l2 4 7 6 1 5-12-12 1-5z" fill="#B7B7B7"/>
<path transform="translate(806,1340)" d="m0 0h2l4 11 3 8v10h-1l-3-13-5-13z" fill="#979797"/>
<path transform="translate(1097,1164)" d="m0 0h8l1 3 3 1-1 8-6 10-2 4-1-3 8-16v-2l-3-1-1-2-6-1z" fill="#fff"/>
<path transform="translate(708,1058)" d="m0 0 2 1v2h2l8 16v5l-3-4-9-18z" fill="#9B9B9B"/>
<path transform="translate(1193,794)" d="m0 0 2 1-15 12-6 4h-2l1-3 3-2h3l1-3h3l1-3h3l2-4z" fill="#A6A6A6"/>
<path transform="translate(1336,1048)" d="m0 0h7l6 3 2 2v7l-3 7-2 1 2-8v-6l-4-3-8-2z" fill="#fff"/>
<path transform="translate(964,1351)" d="m0 0h2l5 18v9l-2-4-5-20z" fill="#939393"/>
<path transform="translate(687,1202)" d="m0 0 2 3 6 17v4h-2l-6-18z" fill="#979797"/>
<path transform="translate(898,937)" d="m0 0h2l11 14 4 5-1 2-3-2v-3l-4-2v-3l-4-2-1-4-4-2z" fill="#A2A2A2"/>
<path transform="translate(626,712)" d="m0 0 6 1 7 3v1l-8-1 5 5 1 4-7-6-4-5z" fill="#AEAEAE"/>
<path transform="translate(720,1082)" d="m0 0h2l9 18v5l-3-4-8-17z" fill="#959595"/>
<path transform="translate(880,815)" d="m0 0 7 6 8 9 3 4-1 2-3-2v-3l-4-2v-3l-4-2-2-4h-2v-2h-2z" fill="#999"/>
<path transform="translate(732,1052)" d="m0 0 4 4 9 17-1 3-4-8v-2l-3-1-4-7z" fill="#C3C3C3"/>
<path transform="translate(1297,692)" d="m0 0 4 1-6 3-13 2h-7l4-2 7-2z" fill="#A3A3A3"/>
<path transform="translate(532,1224)" d="m0 0 2 1-4 5-8 6-6 3h-3l10-8z" fill="#B5B5B5"/>
<path transform="translate(734,1183)" d="m0 0 4 2 10 15-1 4-10-15-3-4z" fill="#9A9A9A"/>
<path transform="translate(1021,1179)" d="m0 0h2l4 10 1-10h1v13l-1 3h-2l-5-13z" fill="#B8B8B8"/>
<path transform="translate(1198,767)" d="m0 0 2 1-5 5-6 5h-3l-1 3-4-1z" fill="#A3A3A3"/>
<path transform="translate(879,1192)" d="m0 0 4 2 10 13-1 3-7-8-6-8z" fill="#909090"/>
<path transform="translate(670,939)" d="m0 0 5 2 7 7 7 8-1 2-18-18z" fill="#AEAEAE"/>
<path transform="translate(767,797)" d="m0 0 4 2 13 11 2 3-4-1-2-3-5-3-2-4-4-1z" fill="#A1A1A1"/>
<path transform="translate(598,1198)" d="m0 0h1v10l-3 7-6 5-2-1 2-3 3-1 2-6 2-3z" fill="#B0B0B0"/>
<path transform="translate(830,1125)" d="m0 0 4 2 1 3 5 4 2 4 4 3-1 3-13-14z" fill="#A7A7A7"/>
<path transform="translate(814,1254)" d="m0 0 2 3 3 13v4l4 1h-5l-2-4-2-9z" fill="#AEAEAE"/>
<path transform="translate(798,955)" d="m0 0 8 1 20-1v2l-6 1h-9l-7 1-6-2z" fill="#8F8F8F"/>
<path transform="translate(909,1370)" d="m0 0 2 1 1 2-18 7-1-2z" fill="#C8C8C8"/>
<path transform="translate(578,1151)" d="m0 0 2 1 8 16v2l-3-1-7-14z" fill="#919191"/>
<path transform="translate(998,1019)" d="m0 0 2 3 5 14v4h-2l-5-15z" fill="#9A9A9A"/>
<path transform="translate(1113,853)" d="m0 0 2 1-17 12h-2l2-4 12-8z" fill="#9A9A9A"/>
<path transform="translate(740,777)" d="m0 0 4 1 12 9 1 2-4-1v-2l-4-1-9-6z" fill="#969696"/>
<path transform="translate(535,1104)" d="m0 0 9 1 3 3-11-2 1 8-3-2-1-5z" fill="#A6A6A6"/>
<path transform="translate(1264,713)" d="m0 0h2v8l-4 4h-2l-2 4-4 3-3-1 11-9 2-5z" fill="#A6A6A6"/>
<path transform="translate(1e3 1400)" d="m0 0 3 1 1 2-14 5-4-1z" fill="#B7B7B7"/>
<path transform="translate(788,1169)" d="m0 0 2 2 5 14v3h-2l-5-13z" fill="#9A9A9A"/>
<path transform="translate(1021,1103)" d="m0 0 2 3 4 16v4h-2l-3-11z" fill="#ADADAD"/>
<path transform="translate(1016,1081)" d="m0 0h1l4 17v5h-2l-3-12z" fill="#A4A4A4"/>
<path transform="translate(1876,1040)" d="m0 0 2 1-1 4 1 2h-10l-2-2z" fill="#fff"/>
<path transform="translate(883,1046)" d="m0 0 7 1 5 3-1 2-6-3h-3l-3 7h-2z" fill="#ABABAB"/>
<path transform="translate(538,994)" d="m0 0 4 2 2 3v3l3 1 4 7-1 3-11-16z" fill="#9D9D9D"/>
<path transform="translate(640,961)" d="m0 0 4 2 1 4 4 2v3l4 2-1 4-12-16z" fill="#A1A1A1"/>
<path transform="translate(975,837)" d="m0 0 7 3v2h-2l1 4 3 5-4-2-3-3z" fill="#7F7F7F"/>
<path transform="translate(791,1296)" d="m0 0h2l5 16v5l-2-3-4-11z" fill="#9A9A9A"/>
<path transform="translate(745 1e3)" d="m0 0h5l-5 4-4 9h-7v-1l6-1 1-7z" fill="#B3B3B3"/>
<path transform="translate(626,943)" d="m0 0 5 3v3l3 1v3l3 1v3l3 1-1 3-9-11-4-5z" fill="#AEAEAE"/>
<path transform="translate(642,1210)" d="m0 0h2l4 4v3l3 1v3l3 1 3 6-4-2-9-12z" fill="#bbb"/>
<path transform="translate(944,904)" d="m0 0 3 3 6 12v2l-3-1-5-10z" fill="#9D9D9D"/>
<path transform="translate(694,790)" d="m0 0 4 2v3l3 1 5 8-1 4-7-11z" fill="#929292"/>
<path transform="translate(978,1052)" d="m0 0 4 5 5 10v2l-3-1-4-8v-4h-2z" fill="#9F9F9F"/>
<path transform="translate(943,863)" d="m0 0 8 6 2 4 4 3-1 3-13-14z" fill="#aaa"/>
<path transform="translate(1108,829)" d="m0 0 2 1-4 5-7 5-4-1 12-9z" fill="#9F9F9F"/>
<path transform="translate(769,1244)" d="m0 0h2l5 12v5l-3-4-4-10z" fill="#9D9D9D"/>
<path transform="translate(757,1219)" d="m0 0 3 1 2 8h2l2 4v5l-3-4-6-12z" fill="#A7A7A7"/>
<path transform="translate(613,1153)" d="m0 0 7 6 5 5 2 3-4-1-6-6v-2l-4-2z" fill="#929292"/>
<path transform="translate(579,1055)" d="m0 0 3 1 8 12-1 4-10-15z" fill="#979797"/>
<path transform="translate(675,967)" d="m0 0 5 5 7 10-1 2-5-5-2-3v-3l-3-1z" fill="#A7A7A7"/>
<path transform="translate(510,959)" d="m0 0h9l7 2v1l-14-1-1 3-2-4z" fill="#ADADAD"/>
<path transform="translate(716,784)" d="m0 0 6 1 3 2-1 5-5-3z" fill="#818181"/>
<path transform="translate(574,1186)" d="m0 0 1 3h2v6l-3 3-8 2 2-4 5-1 1-5z" fill="#B6B6B6"/>
<path transform="translate(1725,1109)" d="m0 0 3 1 1 2-11 4-4-1z" fill="#949494"/>
<path transform="translate(994,1077)" d="m0 0 2 4 2 7-1 3-4-6z" fill="#838383"/>
<path transform="translate(1209,782)" d="m0 0 2 1-13 10h-3l7-7h3l1-3z" fill="#A5A5A5"/>
<path transform="translate(968,1064)" d="m0 0 2 4 3 1 4 8-1 3-3-4-5-9z" fill="#A2A2A2"/>
<path transform="translate(823,764)" d="m0 0 4 1 12 6v1l-7-1-9-6z" fill="#979797"/>
<path transform="translate(947,1310)" d="m0 0 3 1 1 2v6h2l1 9-3-4-3-10z" fill="#ABABAB"/>
<path transform="translate(700,1283)" d="m0 0h1v12h-4l-2-5 3 1z" fill="#8E8E8E"/>
<path transform="translate(1318,686)" d="m0 0 2 1-3 2h-5v2l-9 2-2-2z" fill="#BDBDBD"/>
<path transform="translate(1875,1016)" d="m0 0 8 1-5 4h-4l-1-4z" fill="#fff"/>
<path transform="translate(1319,700)" d="m0 0 2 1-12 10-2-1 4-5h3l2-4z" fill="#B5B5B5"/>
<path transform="translate(290,1412)" d="m0 0 2 1zm-4 1 7 1v1l-13 3-3-1z" fill="#A6A6A6"/>
<path transform="translate(492,1281)" d="m0 0 4 1-10 8-2-1 4-5z" fill="#ACACAC"/>
<path transform="translate(893,1210)" d="m0 0 5 3 5 8-1 3-9-12z" fill="#A0A0A0"/>
<path transform="translate(958,1209)" d="m0 0 2 3 3 8v7l-2-4v-4l-3-1z" fill="#ccc"/>
<path transform="translate(642,1160)" d="m0 0h2l3 7 1 11-2-3-4-13z" fill="#ACACAC"/>
<path transform="translate(691,990)" d="m0 0 3 3 6 9v2l-3-1-6-9z" fill="#999"/>
<path transform="translate(999,916)" d="m0 0 3 3 2-2 3 10-3-1-1-4-3-1z" fill="#DFDFDF"/>
<path transform="translate(923,845)" d="m0 0 5 2v2h2v2l4 2 2 4-4-2-7-7-2-1z" fill="#999"/>
<path transform="translate(1152,822)" d="m0 0 4 1-11 9-4 2 5-7 4-2z" fill="#BFBFBF"/>
<path transform="translate(1137,810)" d="m0 0 2 1-5 5-4 3-4-1z" fill="#A6A6A6"/>
<path transform="translate(1230,747)" d="m0 0 2 1-5 6-5 3-3-1 5-4z" fill="#A0A0A0"/>
<path transform="translate(644,733)" d="m0 0 4 2 5 5v2h2l-1 3-10-10z" fill="#868686"/>
<path transform="translate(588,1170)" d="m0 0 2 2 3 9v4h-2l-3-9z" fill="#A3A3A3"/>
<path transform="translate(1249,732)" d="m0 0 2 1-3 4h-3l-2 4-5 2 6-7z" fill="#A3A3A3"/>
<path transform="translate(879,1056)" d="m0 0h1l-1 8-5 5 1-5z" fill="#A0A0A0"/>
<path transform="translate(812,922)" d="m0 0 4 5 4 8-1 3-5-8-2-4z" fill="#A0A0A0"/>
<path transform="translate(1153,798)" d="m0 0 1 4-11 7-4 1 5-4 8-6z" fill="#B4B4B4"/>
<path transform="translate(918,787)" d="m0 0 6 1v1h-5l2 7h2l-1 2-4-4-2-5z" fill="#ADADAD"/>
<path transform="translate(801,1325)" d="m0 0h2l3 10v5l-2-3-3-9z" fill="#8F8F8F"/>
<path transform="translate(864,1061)" d="m0 0v3l-9 10-2-1 6-6 3-5z" fill="#D5D5D5"/>
<path transform="translate(657,944)" d="m0 0 4 2 6 8-1 2-5-5v-3l-4-2z" fill="#9D9D9D"/>
<path transform="translate(687,915)" d="m0 0 4 2 8 8h-3l-5-4v-2l-4-2z" fill="#B9B9B9"/>
<path transform="translate(1087,869)" d="m0 0 4 1-11 9-2-1 3-4 3-1z" fill="#ABABAB"/>
<path transform="translate(801,827)" d="m0 0 4 2 8 8-3 1v-2h-2v-2h-2v-2l-3-1v-2h-2z" fill="#888"/>
<path transform="translate(804,757)" d="m0 0 6 1 5 2-4 1 1 3-3-1v-2l-4-2z" fill="#D5D5D5"/>
<path transform="translate(929,1308)" d="m0 0 2 1v3l-8 3-3-1z" fill="#AFAFAF"/>
<path transform="translate(718,1032)" d="m0 0 5 5 3 5v2l-3-1-5-9z" fill="#A0A0A0"/>
<path transform="translate(875,1022)" d="m0 0h1v12l-1 6h-2v-7l1-1z" fill="#BDBDBD"/>
<path transform="translate(848,978)" d="m0 0 5 2 7 6-1 2-6-4-1-3-4-1z" fill="#A7A7A7"/>
<path transform="translate(898,867)" d="m0 0 4 2 5 9-1 2-8-11z" fill="#A7A7A7"/>
<path transform="translate(837,865)" d="m0 0 6 5 4 5-1 2-4-3-1-3-4-3z" fill="#A7A7A7"/>
<path transform="translate(1062,858)" d="m0 0 2 1-4 4-7 3-3-1z" fill="#A7A7A7"/>
<path transform="translate(834,787)" d="m0 0 4 2 2 2v3l3 1-1 3-8-9z" fill="#999"/>
<path transform="translate(697,747)" d="m0 0 5 2 7 5-4 1-8-6z" fill="#999"/>
<path transform="translate(657,747)" d="m0 0 5 3v3l3 1 1 6-4-5-5-6z" fill="#A0A0A0"/>
<path transform="translate(971,1378)" d="m0 0h2l1 4v11h-1l-2-10z" fill="#ACACAC"/>
<path transform="translate(1063,1197)" d="m0 0h3l-2 5-6 7v-3l4-5 1-2-2-1z" fill="#fff"/>
<path transform="translate(868,1145)" d="m0 0 5 5 4 5v2l-3-1v-3l-3-1v-3l-3-1z" fill="#A4A4A4"/>
<path transform="translate(768,1123)" d="m0 0 3 4 3 6v2l-3-1-3-6z" fill="#959595"/>
<path transform="translate(590,1072)" d="m0 0 4 2 4 6-1 4-7-10z" fill="#A4A4A4"/>
<path transform="translate(971,1039)" d="m0 0 4 5 3 6v2l-3-1-1-6h-2z" fill="#A4A4A4"/>
<path transform="translate(1873 1e3)" d="m0 0 4 2-3 3h-7l3-3z" fill="#fff"/>
<path transform="translate(699,926)" d="m0 0 8 6 4 4-1 2-9-7z" fill="#CACACA"/>
<path transform="translate(847,877)" d="m0 0 5 4 4 5v2l-4-2-1-4-4-2z" fill="#9D9D9D"/>
<path transform="translate(950,830)" d="m0 0 4 2 4 6-1 4-7-10z" fill="#959595"/>
<path transform="translate(752,829)" d="m0 0 3 3 5 7-1 2-5-5-2-3z" fill="#A4A4A4"/>
<path transform="translate(1305,711)" d="m0 0 2 1-10 8-2-1 2-3h3l2-4z" fill="#B3B3B3"/>
<path transform="translate(5,1552)" d="m0 0h1v7h-1z" fill="#fff"/>
<path transform="translate(4,1536)" d="m0 0h1v7h-1z" fill="#fff"/>
<path transform="translate(1386,1100)" d="m0 0h2l-1 5-1-4z" fill="#fff"/>
<path transform="translate(1702,1081)" d="m0 0 3 1-1 2-3-1z" fill="#fff"/>
<path transform="translate(1393,1124)" d="m0 0h2l-2 4z" fill="#fff"/>
<path transform="translate(33,1612)" d="m0 0h1v5h-1z" fill="#fff"/>
<path transform="translate(1385,1205)" d="m0 0h2v2l-3-1z" fill="#fff"/>
<path transform="translate(1386,1176)" d="m0 0 1 3-2 1z" fill="#fff"/>
<path transform="translate(1389,1157)" d="m0 0 3 1-4 1z" fill="#fff"/>
<path transform="translate(1385,1156)" d="m0 0 3 1-3 1z" fill="#fff"/>
<path transform="translate(1388,1096)" d="m0 0 1 2-4-1z" fill="#fff"/>
<path transform="translate(40,1613)" d="m0 0 2 3h-2z" fill="#fff"/>
<path transform="translate(470,1372)" d="m0 0 4 1z" fill="#fff"/>
<path transform="translate(1398,1215)" d="m0 0 4 1z" fill="#fff"/>
<path transform="translate(1386,1153)" d="m0 0 4 1z" fill="#fff"/>
<path transform="translate(1388,1125)" d="m0 0 3 1h-3z" fill="#fff"/>
<path transform="translate(1876 1e3)" d="m0 0 3 1h-3z" fill="#fff"/>
<path transform="translate(1342,636)" d="m0 0 4 1z" fill="#fff"/>
<path transform="translate(45,453)" d="m0 0 1 4z" fill="#fff"/>
<path transform="translate(61,413)" d="m0 0 1 4z" fill="#fff"/>
<path transform="translate(355,1387)" d="m0 0 3 1z" fill="#fff"/>
<path transform="translate(464,1270)" d="m0 0" fill="#fff"/>
<path transform="translate(466,1270)" d="m0 0h2l-1 2z" fill="#fff"/>
<path transform="translate(469,1269)" d="m0 0 2 1-2 1z" fill="#fff"/>
<path transform="translate(1399,1213)" d="m0 0 3 1z" fill="#fff"/>
<path transform="translate(1389,1178)" d="m0 0 1 2-2-1z" fill="#fff"/>
<path transform="translate(1388,1175)" d="m0 0 2 2h-2z" fill="#fff"/>
<path transform="translate(1393,1172)" d="m0 0 3 1z" fill="#fff"/>
<path transform="translate(1389,1155)" d="m0 0 3 1z" fill="#fff"/>
<path transform="translate(1397,1121)" d="m0 0 1 2-2-1z" fill="#fff"/>
<path transform="translate(1711,1074)" d="m0 0 3 1z" fill="#fff"/>
<path transform="translate(1869,1013)" d="m0 0h2l-1 2z" fill="#fff"/>
<path transform="translate(1873,864)" d="m0 0 2 2h-2z" fill="#fff"/>
<path transform="translate(48,440)" d="m0 0" fill="#fff"/>
<path transform="translate(56,424)" d="m0 0" fill="#fff"/>
<path transform="translate(67,405)" d="m0 0" fill="#fff"/>
<path transform="translate(91,1695)" d="m0 0" fill="#fff"/>
<path transform="translate(63,1661)" d="m0 0" fill="#fff"/>
<path transform="translate(4,1526)" d="m0 0" fill="#fff"/>
<path transform="translate(0,1470)" d="m0 0" fill="#fff"/>
<path transform="translate(346,1391)" d="m0 0 2 1z" fill="#fff"/>
<path transform="translate(358,1386)" d="m0 0 2 1z" fill="#fff"/>
<path transform="translate(354,1385)" d="m0 0 2 1z" fill="#fff"/>
<path transform="translate(357,1384)" d="m0 0 2 1z" fill="#fff"/>
<path transform="translate(446,1379)" d="m0 0 2 1z" fill="#fff"/>
<path transform="translate(440,1379)" d="m0 0 2 1z" fill="#fff"/>
<path transform="translate(453,1375)" d="m0 0 2 1z" fill="#fff"/>
<path transform="translate(365,1374)" d="m0 0" fill="#fff"/>
<path transform="translate(458,1374)" d="m0 0 2 1z" fill="#fff"/>
<path transform="translate(461,1373)" d="m0 0 2 1z" fill="#fff"/>
<path transform="translate(465,1372)" d="m0 0 2 1z" fill="#fff"/>
<path transform="translate(475,1371)" d="m0 0 2 1z" fill="#fff"/>
<path transform="translate(369,1371)" d="m0 0 2 1z" fill="#fff"/>
<path transform="translate(450,1281)" d="m0 0 2 1z" fill="#fff"/>
<path transform="translate(457,1276)" d="m0 0 2 1z" fill="#fff"/>
<path transform="translate(1428,1238)" d="m0 0 2 1z" fill="#fff"/>
<path transform="translate(1389,1223)" d="m0 0 2 1z" fill="#fff"/>
<path transform="translate(1385,1223)" d="m0 0 2 1z" fill="#fff"/>
<path transform="translate(1389,1220)" d="m0 0 2 1z" fill="#fff"/>
<path transform="translate(1404,1212)" d="m0 0 2 1z" fill="#fff"/>
<path transform="translate(1384,1203)" d="m0 0" fill="#fff"/>
<path transform="translate(1386,1203)" d="m0 0 2 1z" fill="#fff"/>
<path transform="translate(1401,1197)" d="m0 0 2 1z" fill="#fff"/>
<path transform="translate(1404,1195)" d="m0 0 2 1z" fill="#fff"/>
<path transform="translate(1400,1195)" d="m0 0 2 1z" fill="#fff"/>
<path transform="translate(1405,1193)" d="m0 0 2 1z" fill="#fff"/>
<path transform="translate(1401,1193)" d="m0 0 2 1z" fill="#fff"/>
<path transform="translate(1391,1177)" d="m0 0" fill="#fff"/>
<path transform="translate(1390,1174)" d="m0 0 2 1z" fill="#fff"/>
<path transform="translate(1400,1157)" d="m0 0 2 1z" fill="#fff"/>
<path transform="translate(1398,1154)" d="m0 0 2 1z" fill="#fff"/>
<path transform="translate(1392,1153)" d="m0 0 2 1z" fill="#fff"/>
<path transform="translate(1397,1145)" d="m0 0" fill="#fff"/>
<path transform="translate(1397,1142)" d="m0 0" fill="#fff"/>
<path transform="translate(1383,1129)" d="m0 0" fill="#fff"/>
<path transform="translate(1387,1127)" d="m0 0 2 1z" fill="#fff"/>
<path transform="translate(1399,1123)" d="m0 0" fill="#fff"/>
<path transform="translate(1399,1119)" d="m0 0 2 1z" fill="#fff"/>
<path transform="translate(1404,1116)" d="m0 0" fill="#fff"/>
<path transform="translate(1433,1113)" d="m0 0 2 1z" fill="#fff"/>
<path transform="translate(1384,1099)" d="m0 0" fill="#fff"/>
<path transform="translate(1389,1099)" d="m0 0 2 1z" fill="#fff"/>
<path transform="translate(1392,1097)" d="m0 0 2 1z" fill="#fff"/>
<path transform="translate(1400,1093)" d="m0 0 2 1z" fill="#fff"/>
<path transform="translate(1698,1083)" d="m0 0" fill="#fff"/>
<path transform="translate(1706,1081)" d="m0 0 2 1z" fill="#fff"/>
<path transform="translate(1861,1053)" d="m0 0 2 1z" fill="#fff"/>
<path transform="translate(1873,1047)" d="m0 0 2 1z" fill="#fff"/>
<path transform="translate(1852,1032)" d="m0 0 2 1z" fill="#fff"/>
<path transform="translate(1853,1023)" d="m0 0 2 1z" fill="#fff"/>
<path transform="translate(1872,1020)" d="m0 0" fill="#fff"/>
<path transform="translate(1852,1017)" d="m0 0" fill="#fff"/>
<path transform="translate(1861,1014)" d="m0 0 2 1z" fill="#fff"/>
<path transform="translate(1881,1011)" d="m0 0 2 1z" fill="#fff"/>
<path transform="translate(1871,1010)" d="m0 0" fill="#fff"/>
<path transform="translate(1866,1011)" d="m0 0 2 1z" fill="#fff"/>
<path transform="translate(1868,1008)" d="m0 0 2 1z" fill="#fff"/>
<path transform="translate(1874,1007)" d="m0 0 2 1z" fill="#fff"/>
<path transform="translate(1879 1e3)" d="m0 0" fill="#fff"/>
<path transform="translate(1878 1e3)" d="m0 0 2 1z" fill="#fff"/>
<path transform="translate(1864,876)" d="m0 0 2 1z" fill="#fff"/>
<path transform="translate(1865,872)" d="m0 0 2 1z" fill="#fff"/>
<path transform="translate(1352,638)" d="m0 0" fill="#fff"/>
<path transform="translate(12,512)" d="m0 0" fill="#fff"/>
<path transform="translate(48,480)" d="m0 0" fill="#fff"/>
<path transform="translate(52,437)" d="m0 0 2 1z" fill="#fff"/>
<path transform="translate(103,1709)" d="m0 0" fill="#fff"/>
<path transform="translate(102,1708)" d="m0 0" fill="#fff"/>
<path transform="translate(99,1705)" d="m0 0" fill="#fff"/>
<path transform="translate(98,1704)" d="m0 0" fill="#fff"/>
<path transform="translate(84,1686)" d="m0 0" fill="#fff"/>
<path transform="translate(81,1683)" d="m0 0" fill="#fff"/>
<path transform="translate(75,1676)" d="m0 0" fill="#fff"/>
<path transform="translate(74,1675)" d="m0 0" fill="#fff"/>
<path transform="translate(67,1668)" d="m0 0" fill="#fff"/>
<path transform="translate(66,1667)" d="m0 0" fill="#fff"/>
<path transform="translate(62,1660)" d="m0 0" fill="#fff"/>
<path transform="translate(59,1657)" d="m0 0" fill="#fff"/>
<path transform="translate(58,1656)" d="m0 0" fill="#fff"/>
<path transform="translate(55,1653)" d="m0 0" fill="#fff"/>
<path transform="translate(54,1652)" d="m0 0" fill="#fff"/>
<path transform="translate(51,1649)" d="m0 0" fill="#fff"/>
<path transform="translate(50,1648)" d="m0 0" fill="#fff"/>
<path transform="translate(47,1645)" d="m0 0" fill="#fff"/>
<path transform="translate(11,1572)" d="m0 0" fill="#fff"/>
<path transform="translate(10,1571)" d="m0 0" fill="#fff"/>
<path transform="translate(1,1523)" d="m0 0" fill="#fff"/>
<path transform="translate(354,1389)" d="m0 0" fill="#fff"/>
<path transform="translate(360,1385)" d="m0 0" fill="#fff"/>
<path transform="translate(355,1383)" d="m0 0" fill="#fff"/>
<path transform="translate(426,1382)" d="m0 0" fill="#fff"/>
<path transform="translate(442,1378)" d="m0 0" fill="#fff"/>
<path transform="translate(383,1378)" d="m0 0" fill="#fff"/>
<path transform="translate(445,1377)" d="m0 0" fill="#fff"/>
<path transform="translate(380,1377)" d="m0 0" fill="#fff"/>
<path transform="translate(389,1376)" d="m0 0" fill="#fff"/>
<path transform="translate(463,1375)" d="m0 0" fill="#fff"/>
<path transform="translate(456,1375)" d="m0 0" fill="#fff"/>
<path transform="translate(367,1372)" d="m0 0" fill="#fff"/>
<path transform="translate(477,1369)" d="m0 0" fill="#fff"/>
<path transform="translate(379,1364)" d="m0 0" fill="#fff"/>
<path transform="translate(390,1355)" d="m0 0" fill="#fff"/>
<path transform="translate(440,1289)" d="m0 0" fill="#fff"/>
<path transform="translate(432,1289)" d="m0 0" fill="#fff"/>
<path transform="translate(448,1283)" d="m0 0" fill="#fff"/>
<path transform="translate(453,1281)" d="m0 0" fill="#fff"/>
<path transform="translate(454,1280)" d="m0 0" fill="#fff"/>
<path transform="translate(456,1278)" d="m0 0" fill="#fff"/>
<path transform="translate(460,1277)" d="m0 0" fill="#fff"/>
<path transform="translate(462,1275)" d="m0 0" fill="#fff"/>
<path transform="translate(464,1274)" d="m0 0" fill="#fff"/>
<path transform="translate(459,1274)" d="m0 0" fill="#fff"/>
<path transform="translate(456,1274)" d="m0 0" fill="#fff"/>
<path transform="translate(463,1273)" d="m0 0" fill="#fff"/>
<path transform="translate(462,1272)" d="m0 0" fill="#fff"/>
<path transform="translate(459,1272)" d="m0 0" fill="#fff"/>
<path transform="translate(473,1267)" d="m0 0" fill="#fff"/>
<path transform="translate(1431,1236)" d="m0 0" fill="#fff"/>
<path transform="translate(1433,1235)" d="m0 0" fill="#fff"/>
<path transform="translate(1437,1234)" d="m0 0" fill="#fff"/>
<path transform="translate(1388,1222)" d="m0 0" fill="#fff"/>
<path transform="translate(1448,1219)" d="m0 0" fill="#fff"/>
<path transform="translate(1394,1215)" d="m0 0" fill="#fff"/>
<path transform="translate(1407,1214)" d="m0 0" fill="#fff"/>
<path transform="translate(1396,1214)" d="m0 0" fill="#fff"/>
<path transform="translate(1407,1211)" d="m0 0" fill="#fff"/>
<path transform="translate(1402,1211)" d="m0 0" fill="#fff"/>
<path transform="translate(1407,1208)" d="m0 0" fill="#fff"/>
<path transform="translate(1420,1206)" d="m0 0" fill="#fff"/>
<path transform="translate(1414,1206)" d="m0 0" fill="#fff"/>
<path transform="translate(1413,1205)" d="m0 0" fill="#fff"/>
<path transform="translate(1418,1204)" d="m0 0" fill="#fff"/>
<path transform="translate(1415,1204)" d="m0 0" fill="#fff"/>
<path transform="translate(1389,1204)" d="m0 0" fill="#fff"/>
<path transform="translate(1416,1203)" d="m0 0" fill="#fff"/>
<path transform="translate(1391,1203)" d="m0 0" fill="#fff"/>
<path transform="translate(1418,1202)" d="m0 0" fill="#fff"/>
<path transform="translate(1393,1202)" d="m0 0" fill="#fff"/>
<path transform="translate(1394,1200)" d="m0 0" fill="#fff"/>
<path transform="translate(1437,1197)" d="m0 0" fill="#fff"/>
<path transform="translate(1403,1194)" d="m0 0" fill="#fff"/>
<path transform="translate(1409,1193)" d="m0 0" fill="#fff"/>
<path transform="translate(1416,1188)" d="m0 0" fill="#fff"/>
<path transform="translate(1415,1187)" d="m0 0" fill="#fff"/>
<path transform="translate(1422,1185)" d="m0 0" fill="#fff"/>
<path transform="translate(1413,1185)" d="m0 0" fill="#fff"/>
<path transform="translate(1416,1184)" d="m0 0" fill="#fff"/>
<path transform="translate(1429,1181)" d="m0 0" fill="#fff"/>
<path transform="translate(1428,1177)" d="m0 0" fill="#fff"/>
<path transform="translate(1414,1163)" d="m0 0" fill="#fff"/>
<path transform="translate(1397,1156)" d="m0 0" fill="#fff"/>
<path transform="translate(1393,1155)" d="m0 0" fill="#fff"/>
<path transform="translate(1399,1152)" d="m0 0" fill="#fff"/>
<path transform="translate(1432,1149)" d="m0 0" fill="#fff"/>
<path transform="translate(1394,1147)" d="m0 0" fill="#fff"/>
<path transform="translate(1400,1137)" d="m0 0" fill="#fff"/>
<path transform="translate(1405,1133)" d="m0 0" fill="#fff"/>
<path transform="translate(1401,1133)" d="m0 0" fill="#fff"/>
<path transform="translate(1383,1133)" d="m0 0" fill="#fff"/>
<path transform="translate(1382,1132)" d="m0 0" fill="#fff"/>
<path transform="translate(1400,1131)" d="m0 0" fill="#fff"/>
<path transform="translate(1408,1130)" d="m0 0" fill="#fff"/>
<path transform="translate(1402,1129)" d="m0 0" fill="#fff"/>
<path transform="translate(1403,1128)" d="m0 0" fill="#fff"/>
<path transform="translate(1400,1128)" d="m0 0" fill="#fff"/>
<path transform="translate(1399,1127)" d="m0 0" fill="#fff"/>
<path transform="translate(1391,1127)" d="m0 0" fill="#fff"/>
<path transform="translate(1413,1126)" d="m0 0" fill="#fff"/>
<path transform="translate(1397,1125)" d="m0 0" fill="#fff"/>
<path transform="translate(1411,1124)" d="m0 0" fill="#fff"/>
<path transform="translate(1413,1123)" d="m0 0" fill="#fff"/>
<path transform="translate(1393,1122)" d="m0 0" fill="#fff"/>
<path transform="translate(1408,1120)" d="m0 0" fill="#fff"/>
<path transform="translate(1404,1119)" d="m0 0" fill="#fff"/>
<path transform="translate(1401,1118)" d="m0 0" fill="#fff"/>
<path transform="translate(1426,1117)" d="m0 0" fill="#fff"/>
<path transform="translate(1402,1115)" d="m0 0" fill="#fff"/>
<path transform="translate(1404,1114)" d="m0 0" fill="#fff"/>
<path transform="translate(1410,1109)" d="m0 0" fill="#fff"/>
<path transform="translate(1415,1106)" d="m0 0" fill="#fff"/>
<path transform="translate(1384,1104)" d="m0 0" fill="#fff"/>
<path transform="translate(1426,1102)" d="m0 0" fill="#fff"/>
<path transform="translate(1420,1102)" d="m0 0" fill="#fff"/>
<path transform="translate(1389,1102)" d="m0 0" fill="#fff"/>
<path transform="translate(1384,1102)" d="m0 0" fill="#fff"/>
<path transform="translate(1390,1101)" d="m0 0" fill="#fff"/>
<path transform="translate(1395,1096)" d="m0 0" fill="#fff"/>
<path transform="translate(1391,1096)" d="m0 0" fill="#fff"/>
<path transform="translate(1405,1091)" d="m0 0" fill="#fff"/>
<path transform="translate(1401,1091)" d="m0 0" fill="#fff"/>
<path transform="translate(1439,1090)" d="m0 0" fill="#fff"/>
<path transform="translate(1400,1090)" d="m0 0" fill="#fff"/>
<path transform="translate(1402,1089)" d="m0 0" fill="#fff"/>
<path transform="translate(1706,1088)" d="m0 0" fill="#fff"/>
<path transform="translate(1400,1088)" d="m0 0" fill="#fff"/>
<path transform="translate(1705,1087)" d="m0 0" fill="#fff"/>
<path transform="translate(1695,1087)" d="m0 0" fill="#fff"/>
<path transform="translate(1705,1085)" d="m0 0" fill="#fff"/>
<path transform="translate(1413,1085)" d="m0 0" fill="#fff"/>
<path transform="translate(1409,1085)" d="m0 0" fill="#fff"/>
<path transform="translate(1408,1084)" d="m0 0" fill="#fff"/>
<path transform="translate(1708,1083)" d="m0 0" fill="#fff"/>
<path transform="translate(1471,1081)" d="m0 0" fill="#fff"/>
<path transform="translate(1419,1081)" d="m0 0" fill="#fff"/>
<path transform="translate(1412,1081)" d="m0 0" fill="#fff"/>
<path transform="translate(1709,1078)" d="m0 0" fill="#fff"/>
<path transform="translate(1711,1077)" d="m0 0" fill="#fff"/>
<path transform="translate(1707,1077)" d="m0 0" fill="#fff"/>
<path transform="translate(1424,1077)" d="m0 0" fill="#fff"/>
<path transform="translate(1727,1074)" d="m0 0" fill="#fff"/>
<path transform="translate(1728,1073)" d="m0 0" fill="#fff"/>
<path transform="translate(1725,1073)" d="m0 0" fill="#fff"/>
<path transform="translate(1714,1073)" d="m0 0" fill="#fff"/>
<path transform="translate(1727,1072)" d="m0 0" fill="#fff"/>
<path transform="translate(1432,1070)" d="m0 0" fill="#fff"/>
<path transform="translate(1831,1069)" d="m0 0" fill="#fff"/>
<path transform="translate(1722,1069)" d="m0 0" fill="#fff"/>
<path transform="translate(1722,1066)" d="m0 0" fill="#fff"/>
<path transform="translate(1843,1062)" d="m0 0" fill="#fff"/>
<path transform="translate(1839,1062)" d="m0 0" fill="#fff"/>
<path transform="translate(1845,1061)" d="m0 0" fill="#fff"/>
<path transform="translate(1751,1061)" d="m0 0" fill="#fff"/>
<path transform="translate(1842,1060)" d="m0 0" fill="#fff"/>
<path transform="translate(1811,1060)" d="m0 0" fill="#fff"/>
<path transform="translate(1732,1058)" d="m0 0" fill="#fff"/>
<path transform="translate(1735,1057)" d="m0 0" fill="#fff"/>
<path transform="translate(1862,1055)" d="m0 0" fill="#fff"/>
<path transform="translate(1856,1052)" d="m0 0" fill="#fff"/>
<path transform="translate(1862,1050)" d="m0 0" fill="#fff"/>
<path transform="translate(1870,1047)" d="m0 0" fill="#fff"/>
<path transform="translate(1879,1045)" d="m0 0" fill="#fff"/>
<path transform="translate(1832,1045)" d="m0 0" fill="#fff"/>
<path transform="translate(1878,1044)" d="m0 0" fill="#fff"/>
<path transform="translate(1834,1043)" d="m0 0" fill="#fff"/>
<path transform="translate(1879,1042)" d="m0 0" fill="#fff"/>
<path transform="translate(1841,1042)" d="m0 0" fill="#fff"/>
<path transform="translate(1835,1041)" d="m0 0" fill="#fff"/>
<path transform="translate(1850,1033)" d="m0 0" fill="#fff"/>
<path transform="translate(1859,1029)" d="m0 0" fill="#fff"/>
<path transform="translate(1864,1026)" d="m0 0" fill="#fff"/>
<path transform="translate(1861,1026)" d="m0 0" fill="#fff"/>
<path transform="translate(1858,1026)" d="m0 0" fill="#fff"/>
<path transform="translate(1855,1021)" d="m0 0" fill="#fff"/>
<path transform="translate(1852,1021)" d="m0 0" fill="#fff"/>
<path transform="translate(1848,1021)" d="m0 0" fill="#fff"/>
<path transform="translate(1850,1019)" d="m0 0" fill="#fff"/>
<path transform="translate(1872,1016)" d="m0 0" fill="#fff"/>
<path transform="translate(1880,1015)" d="m0 0" fill="#fff"/>
<path transform="translate(1866,1015)" d="m0 0" fill="#fff"/>
<path transform="translate(1859,1015)" d="m0 0" fill="#fff"/>
<path transform="translate(1862,1011)" d="m0 0" fill="#fff"/>
<path transform="translate(1737,971)" d="m0 0" fill="#fff"/>
<path transform="translate(1841,932)" d="m0 0" fill="#fff"/>
<path transform="translate(1850,919)" d="m0 0" fill="#fff"/>
<path transform="translate(1845,891)" d="m0 0" fill="#fff"/>
<path transform="translate(1847,889)" d="m0 0" fill="#fff"/>
<path transform="translate(1853,884)" d="m0 0" fill="#fff"/>
<path transform="translate(1867,874)" d="m0 0" fill="#fff"/>
<path transform="translate(1864,873)" d="m0 0" fill="#fff"/>
<path transform="translate(1872,867)" d="m0 0" fill="#fff"/>
<path transform="translate(740,866)" d="m0 0" fill="#fff"/>
<path transform="translate(738,864)" d="m0 0" fill="#fff"/>
<path transform="translate(1876,862)" d="m0 0" fill="#fff"/>
<path transform="translate(1873,859)" d="m0 0" fill="#fff"/>
<path transform="translate(1872,858)" d="m0 0" fill="#fff"/>
<path transform="translate(1347,638)" d="m0 0" fill="#fff"/>
<path transform="translate(1338,635)" d="m0 0" fill="#fff"/>
<path transform="translate(1,556)" d="m0 0" fill="#fff"/>
<path transform="translate(4,553)" d="m0 0" fill="#fff"/>
<path transform="translate(9,516)" d="m0 0" fill="#fff"/>
<path transform="translate(42,460)" d="m0 0" fill="#fff"/>
<path transform="translate(43,459)" d="m0 0" fill="#fff"/>
<path transform="translate(49,438)" d="m0 0" fill="#fff"/>
<path transform="translate(55,434)" d="m0 0" fill="#fff"/>
<path transform="translate(54,433)" d="m0 0" fill="#fff"/>
<path transform="translate(58,420)" d="m0 0" fill="#fff"/>
<path transform="translate(59,419)" d="m0 0" fill="#fff"/>
</svg>
